<svg width="79" height="49" viewBox="0 0 79 49" fill="none" xmlns="http://www.w3.org/2000/svg">
<path d="M66.3409 15.0764C63.6409 17.7864 61.1409 20.5811 58.7409 23.4605C56.3409 26.2552 54.1409 29.0499 52.3409 31.6752C51.9409 32.268 51.4409 32.9455 51.0409 33.5383L39.1409 32.4374C40.0409 31.2517 41.0409 29.9814 42.1409 28.7111C39.4409 31.7599 36.4409 34.4699 33.3409 37.0105C30.1409 39.5511 27.1409 41.6683 24.0409 43.4468C20.9409 45.2252 18.0409 46.5802 15.2409 47.5118C12.4409 48.4433 9.94087 48.8668 7.84087 48.6974C4.64087 48.0199 2.34087 46.2415 1.04087 43.2774C-0.259128 40.398 -0.359128 37.0105 0.840872 33.1149C2.04087 28.9652 4.44087 24.8155 7.84087 20.6658C11.3409 16.5161 15.2409 12.7898 19.6409 9.57169C24.0409 6.35356 28.6409 3.81293 33.2409 1.9498C37.8409 0.086669 41.9409 -0.421457 45.5409 0.340732C46.3409 0.764171 47.2409 1.44167 48.1409 2.28855C49.0409 3.22011 49.8409 4.15168 50.6409 5.25262C51.3409 6.35356 51.9409 7.4545 52.4409 8.47075C52.8409 9.57169 53.0409 10.4186 52.9409 11.0961C49.3409 10.842 45.3409 11.5195 40.8409 13.1286C36.4409 14.8223 32.1409 17.0242 28.1409 19.8189C24.1409 22.6136 20.5409 25.747 17.5409 29.3039C14.4409 32.7761 12.4409 36.2483 11.4409 39.6358C11.0409 41.0755 11.3409 42.0918 12.5409 42.6846C15.2409 42.7693 18.6409 41.5836 22.9409 39.043C27.2409 36.5024 32.6409 32.3527 39.3409 26.6786C40.6409 25.493 42.0409 24.2227 43.6409 22.8677C45.2409 21.5127 46.8409 19.9883 48.4409 18.4639C50.1409 16.9395 51.7409 15.3305 53.3409 13.8061C54.9409 12.197 56.5409 10.6726 57.9409 9.14825C58.8409 9.31763 59.8409 9.65638 60.9409 10.1645C62.0409 10.6726 63.0409 11.2654 63.8409 11.8583C64.6409 12.4511 65.3409 13.0439 65.9409 13.6367C66.2409 14.2295 66.4409 14.7376 66.3409 15.0764Z" fill="black"/>
<path d="M45.8409 39.4664C48.1409 36.841 48.2409 36.6717 50.7409 33.9617L39.3409 32.8607L38.7409 32.776H38.9409C34.2409 38.1114 34.2409 38.1114 29.1409 44.2936L40.8409 47.3423C49.6409 43.1926 60.4409 38.2807 78.7409 28.9651C58.6409 35.0626 45.8409 39.4664 45.8409 39.4664Z" fill="#F15A24"/>
</svg>
